<svg width="489" height="183" viewBox="0 0 489 183" xmlns="http://www.w3.org/2000/svg"><title>playoffs</title><g fill="none" fill-rule="evenodd"><path d="M473.5 14.22c2.44-2.94 2.27-6.72 1.8-9.2-7.03-4.66-15.65-6.12-23.7-4.2 8.4.88 16.36 6.03 21.9 13.4m-22.05 2.05c10.9 3.16 16.1 2.34 19.58.1C464.93 8 455.5 1.92 447.48 2.1c-3 1.2-5.9 2.9-8.5 5.12-3.75 3.23-6.52 7.2-8.28 11.48 3.7-3.03 10.13-5.5 20.75-2.45m35.4 3.23c-1.37 2.3-3.44 5-7 7.84.72 2.74 1.1 5.52 1.17 8.28 2.44-.1 4.7.52 6.73 2.28 1.6-6.02 1.33-12.47-.9-18.4m-11.52-2.58c1.4 2.25 2.58 4.65 3.5 7.17 3.1-2.23 5.38-4.65 6.84-7.28l-.27-.5v-.1c-1.04-2-2.33-4-3.88-5.8-1.2-1.4-2.5-2.7-3.9-3.8.58 2.8.7 7-2.3 10.2M481 38.3c-.3 5.9-2.05 11.6-5.1 16.5.8-.57 1.58-1.16 2.33-1.8 4.22-3.6 7.18-8.14 8.87-13.04-1.25-.86-3.35-1.9-6.1-1.65m-14.1 11.4c-5.78 7.7-13.74 8.9-18.9 8.7 7.7 2.9 16.38 2.6 23.92-1.1 3.8-5 5.9-11.4 6.1-18.1-3.36 1.4-6.75 4.9-11.1 10.7m-37.07-10.4l2.78-.4c19.63-3.2 34.24-7.4 43.45-12.9l-.1-.3c-.8-2.3-1.9-4.5-3.18-6.6-3.93 2.6-9.42 4-20.1 1.2-21-5.5-23.94 8.4-24.24 10.3v.2c-39.9 9.6-115.4 14-139.76 15.2l-.15.7c36.42 1.3 104.32-1.8 141.3-7.4m34 8.3c5.85-5.9 9.25-10.2 14.15-11.5-.1-2.2-.42-4.5-.94-6.7-7.86 5.26-21.35 10.67-45.3 14.48 0 0-1.87.3-2.82.4-9.9 1.47-21.52 2.68-35.15 3.5-28.9 2.37-59 3.63-90 3.63-104.6 0-199.2-14.23-267.6-37.3l-.2 1.1C103.7 42 205.8 58.9 320.1 58.9c41.3 0 81-2.2 118.1-6.3 0 .06 14.8 6 25.6-4.8" fill="#ED174F"/><path d="M13.08 23.9C5.88 23.9 0 29.76 0 36.94v96.5c0 7.2 5.87 13.06 13.08 13.06h28.46c7.2 0 13.06-5.85 13.06-13.06l.02-96.5c0-7.18-5.86-13.04-13.06-13.04H13.08z" fill="#FFF"/><path d="M215.88 149.86l-.2.8c108.15 9.1 211.42 32.26 211.42 32.26l2-8.3c-42.2-7.3-124.6-19.9-213.22-24.76" fill="#0067B1"/><path d="M41.94 27.3h-28.5c-5.3 0-9.64 4.33-9.64 9.65v96.5c0 5.3 4.33 9.64 9.65 9.64h28.47c5.33 0 9.63-4.3 9.63-9.7V36.9c0-5.3-4.3-9.62-9.6-9.62" fill="#FFF"/><path d="M40.14 129.08c-1-4.2-4.37-6.78-2.66-8.13-.4-1.43-1.27-3.17-1.23-3.15-5.2-3-9.7-7.86-10.44-8.58-.9-.98-2.4-2-2.7-2.8-1.2-1.15-7.4-9.9-8.8-13.1L11.7 93c-1.12-4.64-4.9-8.55-5-13.2-.05-1.76.8-5.52 1.1-6.27.3-.75 1.76-1.98 1.76-1.98v-1.27c-5.44.18-3.88-.4-4.8-2.52-.7-1.47-.22-1.77.05-2.8.7-2.98 3.2-7.62 4.2-9.73.4-1.06 1.4-3.6 1.4-3.6 4.1-8.27 5.6-7.68 10.4-8.1l.3-.38c4.9-.22 4.1-.6 4.7-5.2-.7.28-.9-1.47-.9-1.47-.4-2.65.7-2.14 1.3-2.2.1-4.34.6-5.74 3.8-6.95H13.5c-5.3 0-9.65 4.33-9.65 9.64v96.52c0 5.3 4.33 9.6 9.65 9.6H42c-3.27-1.8-1.36-5.2-1.26-11.5-1.54-1.4-.5-2-.56-2.5" fill="#0067B1"/><path d="M34.9 47.06l2.2 1.48c2.3 1.5 5.18 4.08 4.83 13.04.63 1.96.94 5.8 1.55 7.02 1.2 2.4 2 3.96 2.35 6.22 0 0 .35 3.55.8 3.77 2.42.5 1.7.7 2.06 1.2.3.4 1.7.4 1.7 1.7.5.6.8 1.3 1.1 2V36.9c0-5.3-4.3-9.63-9.6-9.63h-9.2c1.4.56 2.3 1.2 2.8 2.2 1.1.1 2.6 2.74.4 6.66.9.68.2 1.63-.5 2.77-.2.37-.5 1-1.1.98-.9 1.77-1.9 3.5-2.6 3.57-.3.28-.4 1.05-.1 1.4 1.1.5 2.5 1.2 3.2 1.84v.4zm.07 39.64c0-4.04 2.8-7.43 6.58-8.34-1-2.47-3.1-6.5-3.7-7.8-.6-1.3-2-9.5-2.3-11.1-.06-.35-3.7 2.12-3.74 2.28-.2.2-2.7 6.77-2.8 7.1 0 0 1.6 2.64 1.9 3.42.8 2.16 2.9 10.04 2.9 10.04l-.6.53c2.8 9.1 1.8 13 3 15.64 1.6 3.76 2 3.28 3.3 6.44 1 2.3 2 11.4 2.4 11.8 1.5 1.9 2.3 3.3 2.3 4.4s-1.2 4.2-.8 6c.3 1.1.4 3.5.9 3.9 0 0 .5.9.3 1.4l-.2.5c.8 2.9 3.5 7.7-.8 10.3h.1c4.6-.6 8.1-4.6 8.1-9.4V89.9c-1.2 3.2-4.3 5.42-7.9 5.42-4.72 0-8.6-3.9-8.6-8.6z" fill="#ED174F"/><path d="M14.64 122v8.5h-.06l-.08-.58-2.3-7.93H8.95v14.4h2.9v-9l.1.5 2.33 8.4h3.25V122h-2.88zm10.5 6.8v-.02c1.58-.56 1.82-1.9 1.82-3.4 0-2.47-1.2-3.4-3.6-3.4h-4.72v14.42h4.83c2.95 0 3.84-1.86 3.84-4.26 0-1.84-.5-3.05-2.1-3.34zm-3.05-4.37h1c.8 0 1 .57 1 1.58 0 .9-.1 1.7-1.2 1.7H22v-3.2zm.9 9.53h-1v-3.92h1c1 0 1.1.95 1.1 1.94 0 1.43-.2 1.98-1.3 1.98zM34.4 122H30l-2.67 14.4h3.3l.36-3.16h2.3l.3 3.16h3.5L34.4 122zm-3.07 8.98l.83-6.47.02-.3h.05v.4l.77 6.5h-1.6z" fill="#FFF"/><path d="M58.63 136.65c-.66 2.57-2.08 4.85-4.02 6.56H114c193.83 0 340 27.6 340 27.6l8-34.1H58.64z" fill="#0067B1"/><path d="M116.63 65.63c-3.28-4.16-9.7-6.27-19.08-6.27H71.52c1.32.74 2.12 2.04 1.6 4.17l-14.66 60.8c-.5 2.04-1.93 3.34-3.62 4.18h20.7c-1.1-1-1.8-1.7-1.8-2.8 0-.4.06-.9.18-1.5l6.48-26.9.4.2c7 2.3 16.34.2 20.53-1.5 2.4-.9 14.4-6.4 17.2-17.9.32-1.3.57-2.9.57-4.6 0-2.6-.6-5.3-2.47-7.7zm-13.5 12.7C99.88 91.7 89.43 92.8 85.06 92.8c-.76 0-2.7-.22-3.1-.33l-.37-.1 6.7-27.74h4.3c4.1 0 7.1 1.2 9 3.6 1.9 2.42 2.4 6.13 1.5 10.14zm103.8 45.7c-.73-3.52-12.87-60.96-12.87-60.96s-26.7 39.4-37.48 54.94c-3.72 4.1-7.13 4.5-16.1 4.8-4.26.2-8.43 0-10.23-.2L143 69.7c.5-2.15 1.75-3.45 3.43-4.2H126.5c1.32.73 2.13 2.03 1.6 4.16l-13.2 54.74c-.5 2.03-1.92 3.33-3.62 4.16h49.86c-2.36-1.1-2.28-2.6-1.27-4.8.34-.67 3.6-5.68 7.4-11.34h21.5c1.08 5.63 2.03 10.64 2.08 11.6.04 1.74-.55 3.03-3.52 4.52h23.3c-2.67-1.76-3.08-2.8-3.7-4.55zm-35.86-17.26c2.63-3.9 12.82-19.4 12.82-19.4s2 10.5 3.8 19.4H171zm69.3-6.95L262.1 71.8c1.66-2.15 5.1-5.58 8.18-6.3l-14.6-.03c2.6.47 2.3 2.97.9 4.83l-17.84 23.58-7.26-22.64c-1.4-4.27.32-4.83 2.7-5.76h-24.13c2.5 1.3 2.64 2.23 3.5 4.46l11.8 30.25-5.86 24.2c-.6 2.4-2.7 3.3-4.3 4.1h21.6c-1.4-.9-2.9-2.2-2.4-4.2l5.9-24.6zm158.98-8.73l4.9-20.4s14.3.4 17.9.6c4.16.2 5.52 1.9 5.96 4.3l1.9-10.3h-42.2c1.4.7 2.4 2 1.8 4.2l-13.2 54.7c-.6 2.4-1.7 3-3.8 4.1h20.3c-1.3-1.1-2.3-1.8-1.7-4.2l6.9-27.87h13.8c1.3 0 2.7 1.3 2.7 2.6l2.5-10.6c-.5 1.2-2.6 2.6-3.9 2.6h-13.8zm67.82-8.2l3.25-15.4c-1.35-.8-2.83-1.3-4.33-1.8-1.8.4-3.5.7-5.3.9-4.4.4-8.7 0-12.8-1.2-7.4 2.2-15.5 7.4-17.9 17.4-1.7 6.7 0 12 6.9 16.9 6.7 4.7 16.2 5.4 14.1 14.2-1.1 4.5-5.5 9.9-13.8 9.9-9.8 0-13.5-9.1-13.4-15.7l-3.9 17.5c2.9 1.3 9 3.7 17.6 3.7 13.1 0 25.1-8.4 27.9-20 3.2-13.5-5.5-16.8-12.98-20.4-7.5-3.7-11.5-5.3-10.14-11 1-4 5.05-8.1 11.2-8.1 9.1 0 12.7 7.4 13.2 12.8zM301.9 64.3c-22.78-.18-39.5 15.6-43.62 32.3-4.7 19.1 7.26 32.74 26.85 32.93 18.03.1 37.94-10.3 43.45-32.36 5.38-21.52-10.43-32.75-26.7-32.84zm10.47 33.3c-4.18 17-14.7 25.7-24.9 25.7-10.3 0-17.53-8.7-12.8-27.92 3.96-16.05 14.36-25.05 25.12-25.05 11 0 16.9 9.6 12.5 27.3zm40.58-6.5l4.86-19.42h18.6c4.2.18 4.9 1.7 5.4 4.12l1.9-10.3h-42.2c1.4.75 2.4 2.05 1.8 4.18L330 124.42c-.6 2.42-1.78 3.07-3.83 4.18h20.3c-1.32-1.1-2.28-1.76-1.7-4.18l6.9-27.83h13.75c1.3 0 2.7 1.3 2.66 2.6l2.58-10.7c-.57 1.2-2.58 2.6-3.9 2.6H353z" stroke="#FFF" fill="#000"/></g></svg>