<svg xmlns="http://www.w3.org/2000/svg" width="111.525" height="242.877" viewBox="0 0 111.525 242.877"><path fill="#B28604" d="M5.337 217.114l77.268 25.764 28.921-60.707-.089-7.11-13.684-3.137 1.346-59.035c2.035-.414 2.082-4.145.126-4.771l.115-10.373c-12.461-1.416-24.735-3.392-36.599-6.6 32.582-14.482 39.711-50.108 20.235-74.347-21.579-24.062-54.79-21.406-74.134 2.428-19.644 28.955-4.687 65.114 26.449 72.807-.594 3.481.459 6.533 3.326 8.625l16.712 61.105-6.087-1.551-44.452 49.205.547 7.697z"/><path fill="#EEB20F" d="M11.958 19.285s-12.273 15.45-8.697 34.316c3.681 16.681 14.103 33.375 33.611 37.019 19.508 3.643 39.303-3.327 49.828-23.152 7.613-16.73 6.676-30.428-.117-42.19-6.792-11.761-17.336-23.223-41.132-22.603-23.281.448-33.493 16.61-33.493 16.61z"/><path fill="#B28604" d="M20.169 81.724c-12.753-12.876-12.207-27.553-10.283-39.182-1.912 15.778.325 29.531 11.693 38.83 3.284 2.597 10.633 4.933 18.84 5.685-15.637-14.934-19.076-29.537-17.406-42.2-1.332 15.445 6.513 31.803 19.005 41.845 13.815-.545 24.026-6.16 33.036-16.13-21.033-17.686-41.818-35.165-62.852-52.852l.662-.993c20.959 17.65 41.918 35.3 62.878 52.951 6.413-6.557 9.802-16.046 10.685-27.966l-.426-4.246c-12.387-12.711-31.859-19.391-50.027-12.58 11.039-5.542 29.898-6.176 49.808 10.374-1.593-12.451-9.355-21.979-20.628-28.682-9.037-2.07-19.18-1.177-30.236 2.17 6.968-3.431 15.521-5.271 25.17-4.68 7.979 1.045 26.327 9.89 29.4 37.489 1.274 14.419-4.233 26.258-14.855 36.152-8.299 6.371-17.598 11.636-28.633 11.578l1.909 1.245-2.062.325c-.917-.595-2.34-1.508-3.159-1.944-8.872-.223-16.078-3.076-22.519-7.189z"/><path fill="#FFD14E" d="M52.569 5.453c-18.094 1.169-28.529 10.851-35.502 18.65 3.133 2.303 6.002 5.069 9.133 7.373 8.188-7.438 16.045-9.72 25.658-9.193-12.354.188-18.921 5.006-24.521 10.113l50.313 42.25c6.814-8.448 11.345-18.01 12.067-28.969-14.356-18.531-28.747-20.318-38.912-21.659 19.729.804 30.152 9.202 38.866 19.808-.737-11.271-3.971-20.037-9.845-28.053 6.867 9.107 11.658 19.926 11.285 30.631-.566 10.318-4.842 22.116-12.071 29.782-9.044 8.193-19.339 13.993-31.133 14.349l-1.909-1.245c12.112-.35 21.916-5.535 31.117-13.708-16.379-13.595-34.216-28.729-50.594-42.324-12.315 15.98-3.055 42.166 17.25 57.3-9.547-.409-17.91-3.144-24.141-8.833 6.049 3.803 12.649 6.865 20.557 7.357-18.162-14.347-27.148-39.917-14.819-56.779l-8.979-7.361c-9.348 14.195-12.502 30.438-4.749 48.162-7.114-11.425-9.444-30.05 3.472-49.282-1.209-1.382-2.585-2.333-3.861-3.573l.707-.965 4.106 3.73c14.115-15.359 24.441-17.013 36.505-17.561z"/><path fill="#EEB20F" d="M12.748 18.181l-.79 1.104 5.345 4.556-1.011 1.252 1.006 1.026.855-1.192 9.185 7.469-1.036 1.184 1.179.867 1.136-.975 50.597 42.529 1.013-1.14-50.581-42.486 1.165-1.013-1.097-1.043-1.192 1.111-9.302-7.808 1.031-.944-.991-.953-1.013 1.08zM85.213 36.676c2.37 2.346 4.256 4.708 5.903 7.492l.088 2.686c-1.498-3.237-3.873-5.832-6.234-8.292l.243-1.886z"/><path fill="#B28604" d="M89.169 38.906c1.229 1.584 2.506 2.972 3.49 5.095.32 2.374-.048 2.974-.01 2.707.037-.267-3.438-5.398-3.438-5.398l-.582-2.81.54.406z"/><path fill="#EEB20F" d="M63.398 6.218c6.315.965 10.226 3.104 13.04 5.777-2.468-1.475-4.896-2.206-7.451-2.654l-5.589-3.123zM44.284 89.861l-1.269.124c-1.509-1.151-2.84-2.295-4.091-3.435l.456-.5c1.594 1.584 3.234 2.8 4.904 3.811zM110.208 176.037l-13.012-3.069-8.198 17.696-18.007-5.123-2.758-13.026-12.341-9.285-6.8-1.604-43.534 48.235 42.51 13.972-.171 6.707.776.222.12-6.692 14.226 4.676-.085 6.787.544.226.169-6.807 18.674 6.138z"/><path fill="#B28604" d="M48.496 163.978l9.188 2.285-19.139 23.488c3.16-6.583 8.944-14.996 8.947-17.631-.154-1.802-.429-2.13-4.108-2.324l5.112-5.818zM58.827 167.023l-17.89 21.751c4.812-1.704 9.476-1.821 13.92.38l6.796-8.81 6.58-7.829-9.406-5.492zM43.464 206.783l13.332-16.411c2.002.431 3.415 1.908 2.792 4.986l-11.894 28.352.374.123 17.978-27.017c-2.822-3.128-3.973-6.845-2.681-10.488l-1.198-4.422-18.703 24.877zM66.655 197.413c3.257 2.654 7.003 4.391 11.084 5.5l-14.824 25.765-14.191-4.688 17.931-26.577zM78.515 203.314c4.754.786 9.327.937 13.701.387-.904 4.239-1.062 7.648-.917 10.551l-8.979 20.853-18.708-6.196 14.903-25.595zM95.913 175.292l12.684 2.803-3.071 6.208-12.416-2.203zM18.134 213.995l24.099-28.988.213.177-24.029 28.903zM32.75 218.798l23.959-32.269.222.164-23.828 32.221z"/><path fill="#EEB20F" d="M39.376 100.353c6.508 5.181 23.766 10.015 59.246 12.357l-5.268 79.165c-8.904 4.714-21.502 1.946-30.212-6.552l-23.766-84.97z"/><path fill="#B28604" d="M63.144 185.323c6.461 4.925 14.706 8.065 26.48 7.679l-.008-.775-1.255-.272 2.88-79.93 6.91.374-6.134 85.642c-14.52 1.697-24.569-2.159-28.873-12.718zM66.272 187.765l-14.381-81.809-9.527-3.549z"/><path fill="#FFD14E" d="M63.649 108.72c4.959.915 9.946 1.647 14.963 2.205l.753 81.426c-2.315-.375-4.516-1.021-6.669-1.77l-9.047-81.861z"/><path fill="#EEB20F" d="M36.951 91.475c-4.585 6.271 5.641 11.864 20.226 15.154 13.842 2.769 27.051 4.156 40.683 5.652 1.225.064 1.205-1.864.463-2.045-1.796-.563-7.552-3.292-7.726-4.155-2.344-2.749.654-4.182 6.968-4.8l-.044-1.514c-3.979.74-7.457 1.737-8.52 3.979-1.158 2.674 3.116 4.237 6.147 6.055-23.573-1.024-57.622-7.13-57.87-14.869 4.959.712 10.526 4.419 15.321 4.966 3.347.938 8.071 1.269 9.211 0 7.628.144 7.658 1.748 22.371 1.62 13.359-.994 1.599-5.026-5.549-4.215-5.707 1.121-10.879 1.601-16.822 1.381.027-1.888-.669-3.632-3.946-4.858-2.226-.596-3.875-1.082-5.265-1.519-2.331-.124-4.536-.764-6.985-1.067-2.448-.303-5.142-.271-7.439-.392-.656-.036-.612.315-1.224.627z"/><path fill="#B28604" d="M46.979 93.359l1.941 1.229s-2.93.137-2.385 1.093 3.202 3.278 4.188 3.449c.988.171 1.875.103 1.808-.136-.068-.239-2.42-2.562-1.125-3.415 1.295-.854 3.475-.751 3.475-.751l-2.725-1.127s-2.112-.683-2.861-.581c-.749.103-2.316.239-2.316.239z"/><path fill="#FFD14E" d="M57.028 94.486c-.683.17-2.282 1.502-1.567 2.493.716.99 1.601 2.561 1.601 2.561s3.715 1.024 3.681-.615c-.034-1.639-1.396-2.937-1.396-2.937s-1.637-1.674-2.319-1.502zM68.023 108.403l23.819 3.218c1.125-.07 1.535-.743-.568-1.243l-22.824-2.714c-1.81-.257-1.398.567-.427.739zM5.553 209.806l12.632 4.128.158 6.811-12.256-3.935zM18.41 214.048l14.34 4.75-.111 6.833-14.026-4.845zM33.272 218.977l14.422 4.732-.095 6.786-14.59-4.741zM48.724 223.988l14.191 4.689-.113 6.797-14.272-4.76zM63.61 228.907l18.708 6.196-.007 7.088-18.833-6.432z"/><path fill="#F0E8DB" d="M63.611 235.351l.681-4.808 17.576 4.411-18.221-6.072-.162 6.439zM48.722 224.015l-.186 6.481.315.139.839-5.29 12.934 3.67.291-.304zM33.103 218.914l-.1 6.746.361-.633.477-5.132 12.646 3.711.303-.192zM18.419 214.1l.176 6.081.793-4.752 13.091 3.28zM5.541 209.855l.492 5.677.476-4.347 11.503 2.692z"/><path stroke="#B28604" stroke-width=".367" stroke-miterlimit="2.613" d="M86.651 116.409c-.387.643-.894 1.744-1.482 3.632-.852 2.727-1.848 7.03-2.847 13.822-1.862 12.663-3.244 19.896-3.903 23.087h.023c.305 0 .554.362.554.808v1.633c0 .361-.164.668-.39.771 1.312 2.704 3.231 4.474 5.112 6.204 1.771 1.63 3.504 3.229 4.729 5.533h.689c.476-.479.957-.92 1.438-1.36 1.112-1.021 2.226-2.04 3.229-3.515l-.001 1.83c-.802.953-1.644 1.726-2.483 2.496-.312.283-.621.567-.93.86.059.119.092.265.092.421v1.484c0 .213-.063.405-.162.54l2.831 3.386-.146 1.828-3.963-5.021h-.301c-.624 1.994-1.735 3.349-2.856 4.715-.834 1.015-1.674 2.036-2.291 3.349l.039-.001c.275-.005.506.321.515.724l.024 1.485c.007.342-.147.633-.363.717l.14.311.001-.001c.304.677.607 1.353.946 1.9.158.26.077.601-.183.76s-.601.078-.76-.182c-.369-.599-.69-1.313-1.012-2.025v-.003l-.324-.715-.992.019c-.201.375-.354.69-.492.973-.328.669-.563 1.153-1.172 1.937-.188.239-.535.283-.774.097-.241-.188-.285-.534-.099-.775.537-.69.754-1.132 1.051-1.741.165-.338.355-.728.648-1.257l-.023-1.245c-.491-2.338-2.646-4.095-4.859-5.897-1.677-1.365-3.384-2.758-4.527-4.482h-1.146c-.556.957-1.076 1.936-1.6 2.913-.533.998-1.065 1.997-1.632 2.976.082.133.137.331.139.552l.021 1.484c.004.318-.101.595-.246.697l.557 1.667c.097.288-.062.601-.35.695-.289.095-.601-.063-.695-.351l-.647-1.943-.799.02c-.208.005-.384-.32-.39-.725l-.02-1.485c-.004-.252.06-.477.157-.61-1.346-2.694-4.584-7.551-4.594-7.566-.854-.322-1.68-2.227-.719-1.798 1.176.046 5.87 7.987 6.432 9.151.634-1.073 1.224-2.179 1.813-3.281.466-.873.933-1.746 1.42-2.605-.102-.133-.165-.318-.165-.521v-1.485l.021-.199c-3.286-3.442-5.332-6.502-7.39-9.579-.97-1.451-1.942-2.908-3.051-4.408l-.057.002-1.431 6.293c-.039.302-.133-1.516-.435-1.555s.253-.945.293-1.248l.456-3.471-.414.007c-.275.005-.506-.319-.513-.724l-.026-1.485c-.008-.375.182-.688.429-.735l-6.374-13.813c-.302-.654-.873-3.212-.569-2.559l7.429 14.785c-.245-2.949-.53-5.957-.815-8.965-1.188-12.568-2.381-25.135-.574-31.534-.252-.075-.478-.213-.657-.395-.279-.28-.454-.669-.455-1.097h-.002v-1.347h.002c0-.429.176-.819.458-1.101.28-.28.669-.454 1.097-.455v-.002h.002v.002h2.462v-.002h.001v.002c.431 0 .82.176 1.103.458.278.28.454.668.455 1.097h.002v1.3459999999999999h-.002c0 .235-.055.459-.147.659 1.169.646 2.268 2.316 3.323 4.702 1.994 4.504 3.958 11.692 5.999 19.167 2.166 7.93 4.42 16.182 6.876 21.816h.883c.635-3.044 2.034-10.288 3.939-23.247 1.008-6.854 2.02-11.217 2.886-13.99.785-2.512 1.473-3.768 1.939-4.392l-.008-.142v-1.107h.003c0-.43.176-.819.458-1.102.279-.28.668-.454 1.099-.455v-.002h2.7579999999999996v.002c.429.001.818.176 1.101.458.28.28.454.669.455 1.098h.003v1.108l-.004.081v.018l-.004.053-.003.013-.001.009-.002.018-.007.049-.005.028-.01.048-.002.013-.024.098c1.924 4.545 3.115 9.453 3.906 14.557.214 1.373.397 2.759.56 4.154l-.652 4.561c-.248-2.895-.561-5.754-.994-8.546-.748-4.818-1.855-9.454-3.612-13.762-.213.108-.451.17-.705.17h-2.76l-.003-.002c-.116-.001-.229-.014-.333-.037l-.007-.002-.033-.009-.012-.002-.256-.091-.004-.002-.164-.089-.143-.106zm-9.245 43.788h-.396c-.549 3.242-1.849 5.199-3.044 6.996-.729 1.096-1.414 2.127-1.836 3.361.277.037.494.352.494.729v1.485c0 .162-.04.313-.109.438 1.058 1.455 2.584 2.7 4.085 3.923 2.167 1.768 4.283 3.491 5.062 5.814l.72-.014c.68-1.665 1.672-2.872 2.654-4.068.979-1.194 1.952-2.378 2.541-4.017-.267-.018-.479-.34-.479-.731v-1.484c0-.228.071-.432.184-.565-1.137-1.967-2.707-3.414-4.31-4.889-2.061-1.897-4.169-3.839-5.566-6.978zm-1.516 0h-.086c-.305 0-.553-.363-.553-.807v-1.635c0-.174.038-.336.104-.468-2.473-5.71-4.723-13.948-6.885-21.866-2.026-7.423-3.979-14.563-5.946-19.011-1.14-2.57-2.229-4.189-3.257-4.321-.146.046-.303.071-.465.071v.003h-.077l-.029.012c-.156.068-.329.06-.472-.012h-1.199c-1.853 6.099-.655 18.73.542 31.363.341 3.604.683 7.209.95 10.617l.727-.014c.273-.005.505.321.513.725l.026 1.486c.003.186-.04.354-.116.485 1.004 1.381 1.902 2.726 2.797 4.063 2.074 3.104 4.136 6.188 7.488 9.658h1.02c.445-1.514 1.234-2.701 2.076-3.968 1.105-1.66 2.308-3.469 2.842-6.381zm14.873-44.802l.011-.019-.003-.001.036-.102h.001l.006-.027v-.007l.005-.043v-1.1260000000000001h.002c0-.123-.054-.237-.138-.32-.082-.082-.194-.135-.317-.135v.003h-2.7579999999999996v-.003c-.123.001-.237.053-.32.136-.082.083-.135.196-.135.32h.002v1.107l.008.082v.002l.002.007.002.009.01.036c.029.088.083.165.153.221l.044.032.048.024.004.003.003.001v.001l.067.023.017.004v-.001l.095.012v-.002h2.758c.129 0 .245-.054.327-.14l.047-.056.023-.041zm-32.223-4.337c.178-.053.354-.082.529-.088l.052-.045c.083-.083.134-.196.134-.32h-.002v-1.3459999999999999h.002c0-.122-.052-.236-.135-.319s-.196-.135-.32-.135v.002h-.001v-.002h-2.462v.002h-.002v-.002c-.123 0-.236.053-.319.136s-.134.196-.134.319h.002v1.347h-.002c0 .122.052.236.135.319s.196.134.32.134v-.002h2.203z" fill="none"/><path fill="#EEB20F" d="M55.272 125.197c-.011 4.559.669 9.199 1.079 13.738.426 4.677.851 9.353 1.205 13.639l.111.949-.662-.904c-.376-4.525-.789-9.08-1.202-13.633-.512-5.648-1.191-11.223-1.077-16.895l.546 3.106zm6.558 37.3l-3.729-4.649.285-.525 3.199 3.79.245 1.384zm-4.951-29.753l-.763-2.753c.696 8.647 1.382 17.296 2.095 25.942l.059.066 3.076 3.738-.052-1.073-2.547-2.958c.035-3.08-1.246-15.308-1.868-22.962zM91.379 116.438c1.942 6.576 2.644 13.203 3.382 19.754.369 3.271.738 6.542 1.254 9.798l-.544.086c-.521-3.287-.89-6.555-1.258-9.823-.736-6.526-1.229-12.543-3.157-19.072l.017-.447.306-.296zm3.017 48.4c-.497 1.718-.728 2.979-1.271 4.45-.538 1.452-1.45 2.368-1.649 3.275-.364 2.528.387 3.593 1.09 4.59.466.659.689.637.836 1.609l-.077 1.073c-.126-.844-.782-1.761-1.21-2.366-.772-1.095-1.6-2.266-1.172-5.07l.013-.084.06-.063c.242-.843 1.061-1.712 1.594-3.153.545-1.473 1.372-3.597 1.864-5.293l-.078 1.032zm.173-2.427l.092-1.287c-.555 1.361-1.385 3.238-1.904 4.642-.904 2.441-2.371 5.063-2.604 6.313l-.027.049-.006.054c-.321 2.98.461 4.543 1.313 6.243.531 1.058 1.396 2.298 1.714 3.858l.067-.943c-.332-1.631-.742-2.071-1.289-3.162-.81-1.613-1.529-3.143-1.239-5.93.399-1.458 1.689-3.859 2.592-6.292.094-.261.957-2.66 1.291-3.545zm-2.65-47.133l-.197.851.127.195c1.998 6.268 2.801 14.42 3.484 21.134.155 1.522.303 2.966.447 4.246l.549-.062c-.152-1.336-.296-2.748-.447-4.238-.688-6.739-1.535-15.059-3.551-21.383v-.002l-.412-.741z"/></svg>